<mxfile host="app.diagrams.net" modified="2023-04-25T01:56:56.251Z" agent="Mozilla/5.0 (Windows NT 10.0; Win64; x64) AppleWebKit/537.36 (KHTML, like Gecko) Chrome/112.0.0.0 Safari/537.36" etag="PLePNcvIqzzOg4Ozx5en" version="21.2.1" type="device">
  <diagram name="Page-1" id="2c0d36ab-eaac-3732-788b-9136903baeff">
    <mxGraphModel dx="1235" dy="646" grid="1" gridSize="10" guides="1" tooltips="1" connect="1" arrows="1" fold="1" page="1" pageScale="1.5" pageWidth="1169" pageHeight="827" background="none" math="0" shadow="0">
      <root>
        <mxCell id="0" />
        <mxCell id="1" parent="0" />
        <mxCell id="2" value="Home" style="rounded=1;fillColor=#23445D;gradientColor=none;strokeColor=none;fontColor=#FFFFFF;fontStyle=1;fontFamily=Tahoma;fontSize=14" parent="1" vertex="1">
          <mxGeometry x="500" y="40" width="190" height="80" as="geometry" />
        </mxCell>
        <mxCell id="GwJ2g9Za8bwIHdjVY_Io-120" style="edgeStyle=orthogonalEdgeStyle;rounded=0;orthogonalLoop=1;jettySize=auto;html=1;exitX=0;exitY=0.5;exitDx=0;exitDy=0;entryX=0;entryY=0.5;entryDx=0;entryDy=0;strokeWidth=2;fillColor=#dae8fc;strokeColor=#6c8ebf;" parent="1" edge="1">
          <mxGeometry relative="1" as="geometry">
            <mxPoint x="618" y="187" as="sourcePoint" />
            <mxPoint x="618" y="367" as="targetPoint" />
            <Array as="points">
              <mxPoint x="595" y="187.5" />
              <mxPoint x="595" y="367.5" />
            </Array>
          </mxGeometry>
        </mxCell>
        <mxCell id="GwJ2g9Za8bwIHdjVY_Io-121" value="교회 소식" style="rounded=1;fillColor=#dae8fc;strokeColor=#6c8ebf;fontStyle=1;fontFamily=Tahoma;fontSize=14;" parent="1" vertex="1">
          <mxGeometry x="619" y="157" width="130" height="60" as="geometry" />
        </mxCell>
        <mxCell id="GwJ2g9Za8bwIHdjVY_Io-128" style="edgeStyle=orthogonalEdgeStyle;rounded=0;orthogonalLoop=1;jettySize=auto;html=1;exitX=0;exitY=0.5;exitDx=0;exitDy=0;entryX=0;entryY=0.5;entryDx=0;entryDy=0;strokeWidth=2;fillColor=#dae8fc;strokeColor=#6c8ebf;" parent="1" source="GwJ2g9Za8bwIHdjVY_Io-122" target="GwJ2g9Za8bwIHdjVY_Io-121" edge="1">
          <mxGeometry relative="1" as="geometry">
            <Array as="points">
              <mxPoint x="595" y="277.5" />
              <mxPoint x="595" y="187.5" />
            </Array>
          </mxGeometry>
        </mxCell>
        <mxCell id="GwJ2g9Za8bwIHdjVY_Io-122" value="주보" style="rounded=1;fillColor=#dae8fc;strokeColor=#6c8ebf;fontStyle=1;fontFamily=Tahoma;fontSize=14;" parent="1" vertex="1">
          <mxGeometry x="619" y="247" width="130" height="60" as="geometry" />
        </mxCell>
        <mxCell id="GwJ2g9Za8bwIHdjVY_Io-123" value="" style="edgeStyle=elbowEdgeStyle;elbow=horizontal;strokeWidth=2;rounded=0;fillColor=#dae8fc;strokeColor=#6c8ebf;" parent="1" target="GwJ2g9Za8bwIHdjVY_Io-122" edge="1">
          <mxGeometry x="4" y="-163" width="100" height="100" as="geometry">
            <mxPoint x="619" y="187" as="sourcePoint" />
            <mxPoint x="104" y="-163" as="targetPoint" />
            <Array as="points">
              <mxPoint x="595" y="233.5" />
            </Array>
          </mxGeometry>
        </mxCell>
        <mxCell id="GwJ2g9Za8bwIHdjVY_Io-124" value="갤러리" style="rounded=1;fillColor=#dae8fc;strokeColor=#6c8ebf;fontStyle=1;fontFamily=Tahoma;fontSize=14;" parent="1" vertex="1">
          <mxGeometry x="619" y="337" width="130" height="60" as="geometry" />
        </mxCell>
        <mxCell id="Ka5hQ_6PfS1_v_SFMXNL-35" value="" style="edgeStyle=elbowEdgeStyle;elbow=horizontal;strokeWidth=2;rounded=0;fillColor=#dae8fc;strokeColor=#6c8ebf;exitX=0.5;exitY=1;exitDx=0;exitDy=0;entryX=0;entryY=0.5;entryDx=0;entryDy=0;" edge="1" parent="1" source="2" target="GwJ2g9Za8bwIHdjVY_Io-124">
          <mxGeometry x="19" y="-146.5" width="100" height="100" as="geometry">
            <mxPoint x="634" y="203.5" as="sourcePoint" />
            <mxPoint x="560" y="320" as="targetPoint" />
            <Array as="points">
              <mxPoint x="595" y="210" />
            </Array>
          </mxGeometry>
        </mxCell>
      </root>
    </mxGraphModel>
  </diagram>
</mxfile>
